:SAMPLES-PER-SECOND 30
:FULLY-SPECIFIED
:DEGREES
95
root  -22.7666 38.5665 -3.23276 55.638 -83.7954 -63.5016
RightUpLeg  -18.4164 -15.0864 6.91479
RightLeg  27.71 -2.70121 -1.7831
RightFoot  -1.92545 0.510727 -6.36309
RightToes  8.73114e-010 0 -3.6325e-017
Spine  4.24676 -3.53058 13.0364
Spine1  13.0618 -2.67875 0.791759
HEad  -4.07574 1.93829 -4.11998
LeftShoulder1  9.167 -12.4266 -50.2296
LeftArm  -4.37431 16.4814 -28.3212
LeftForeArm  17.5056 -20.7369 -4.10579
LeftHand  -0.244104 0.0205437 5.32207
RightShoulder  6.82678 10.2362 43.3169
RightArm  -6.93647 -16.9692 28.2531
RightForeArm  3.88453 11.0494 6.71879
RightHand  -0.857819 1.40755 -14.7434
LeftUpLeg  1.02708 3.46465 9.28091
LeftLeg  61.8391 3.65796 7.96399
LeftFoot  11.3594 0.61871 -3.35133
LeftToes  -7.64008e-011 1.13257e-010 -2.15718e-012
96
root  -24.3422 39.0101 -3.42454 50.4399 -83.7345 -58.8619
RightUpLeg  -14.4315 -16.2437 6.11804
RightLeg  26.7557 -1.90369 -1.29858
RightFoot  -3.6367 0.393727 -6.20247
RightToes  8.73114e-010 0 -3.6325e-017
Spine  4.36897 -3.08903 13.3283
Spine1  13.2921 -1.98855 0.227539
HEad  -4.48433 0.744369 -3.28276
LeftShoulder1  9.35446 -12.6776 -50.4614
LeftArm  -2.48666 17.0433 -28.4966
LeftForeArm  19.9397 -16.9895 -5.02933
LeftHand  -0.244104 0.0205437 5.32207
RightShoulder  6.87707 10.2912 43.4709
RightArm  -0.965279 -14.4588 29.0394
RightForeArm  -0.847929 16.3246 6.30084
RightHand  -0.992151 2.01584 -15.6794
LeftUpLeg  -5.04038 2.97078 8.5489
LeftLeg  67.0699 3.47861 9.67566
LeftFoot  8.14226 0.229817 -1.65258
LeftToes  -7.64008e-011 1.13257e-010 -2.15718e-012
97
root  -25.897 39.4305 -3.60391 52.0898 -84.6747 -60.9303
RightUpLeg  -10.2552 -16.3275 4.88143
RightLeg  25.1714 -1.15703 -0.696544
RightFoot  -5.40143 0.269066 -5.8679
RightToes  8.73114e-010 0 -3.6325e-017
Spine  4.37003 -2.17405 13.379
Spine1  13.417 -0.756929 -0.720544
HEad  -4.58887 -0.0251973 -3.07726
LeftShoulder1  9.3974 -12.7657 -50.4195
LeftArm  -2.25061 18.1816 -28.9314
LeftForeArm  24.7835 -14.5347 -5.83737
LeftHand  -0.244104 0.0205437 5.32207
RightShoulder  6.85766 10.3353 43.1948
RightArm  4.38141 -11.7822 29.8532
RightForeArm  -4.87697 21.3712 5.40213
RightHand  -0.966145 1.77143 -15.7654
LeftUpLeg  -10.1517 3.9145 7.5507
LeftLeg  68.1424 3.10787 9.28427
LeftFoot  4.7114 0.251778 -2.00101
LeftToes  -7.64008e-011 1.13257e-010 -2.15718e-012
98
root  -27.4225 39.7419 -3.76198 56.9441 -85.5822 -66.0143
RightUpLeg  -6.3211 -15.5812 3.53819
RightLeg  23.601 -1.36492 0.0889512
RightFoot  -7.0906 0.151342 -5.37342
RightToes  8.73114e-010 0 -3.6325e-017
Spine  4.23154 -1.37691 13.418
Spine1  13.4214 0.272522 -1.44574
HEad  -4.6145 -0.169762 -3.41104
LeftShoulder1  9.37972 -12.7892 -50.2538
LeftArm  -1.85807 20.0566 -29.4854
LeftForeArm  27.7652 -13.5712 -6.18645
LeftHand  -0.244104 0.0205437 5.32207
RightShoulder  6.78967 10.341 42.7216
RightArm  6.19536 -8.81155 30.3667
RightForeArm  -4.76953 25.7872 5.71032
RightHand  -0.826722 0.896463 -15.3386
LeftUpLeg  -14.6017 4.96661 6.53909
LeftLeg  65.9554 2.75639 7.47583
LeftFoot  2.41261 0.302111 -2.61431
LeftToes  -7.64008e-011 1.13257e-010 -2.15718e-012
99
root  -28.932 40.0164 -3.88171 64.7066 -86.1187 -73.9192
RightUpLeg  -2.4807 -14.0884 2.36676
RightLeg  21.703 -2.18683 1.17809
RightFoot  -8.04457 0.0937956 -5.15237
RightToes  8.73114e-010 0 -3.6325e-017
Spine  3.90307 -0.806634 13.8607
Spine1  13.407 1.05495 -2.43121
HEad  -4.6846 -0.00839782 -4.03951
LeftShoulder1  9.42251 -12.8568 -50.2746
LeftArm  -0.793977 22.2491 -29.7357
LeftForeArm  28.1133 -13.5884 -6.34102
LeftHand  -0.244104 0.0205437 5.32207
RightShoulder  6.74556 10.3126 42.5189
RightArm  6.60159 -5.72893 30.4151
RightForeArm  -3.00742 30.0366 6.71164
RightHand  -0.693523 0.00820856 -14.9409
LeftUpLeg  -18.0656 5.88312 5.63029
LeftLeg  60.5717 2.56602 5.51172
LeftFoot  0.298232 0.270502 -2.67793
LeftToes  -7.64008e-011 1.13257e-010 -2.15718e-012
100
root  -30.4068 40.2187 -3.96508 79.987 -86.4113 -89.2515
RightUpLeg  1.04045 -12.561 1.54833
RightLeg  19.8421 -2.41024 2.26677
RightFoot  -8.90314 0.0451412 -4.91929
RightToes  8.73114e-010 0 -3.6325e-017
Spine  3.46292 -0.21798 14.6403
Spine1  13.4659 1.86298 -3.71128
HEad  -4.82082 0.201983 -4.78359
LeftShoulder1  9.50096 -12.9213 -50.4922
LeftArm  -0.0397942 24.2805 -29.8246
LeftForeArm  27.8301 -13.753 -6.40317
LeftHand  -0.244104 0.0205437 5.32207
RightShoulder  6.74041 10.2873 42.5673
RightArm  6.81959 -2.68126 30.1842
RightForeArm  -1.36314 33.9458 7.65151
RightHand  -0.609431 -0.560649 -14.6342
LeftUpLeg  -20.2834 7.32757 4.991
LeftLeg  51.963 2.57311 3.97497
LeftFoot  -0.792037 0.314914 -3.34937
LeftToes  -7.64008e-011 1.13257e-010 -2.15718e-012
101
root  -31.855 40.2685 -4.02678 99.1708 -86.2562 -108.405
RightUpLeg  4.06558 -11.7753 0.967652
RightLeg  18.7144 -1.73142 3.07619
RightFoot  -10.3779 -0.0331557 -4.33846
RightToes  8.73114e-010 0 -3.6325e-017
Spine  2.9892 0.372078 15.3422
Spine1  13.6057 2.58054 -4.70318
HEad  -5.12081 0.518447 -5.42601
LeftShoulder1  9.51771 -12.9114 -50.61
LeftArm  -0.404589 25.9711 -30.2188
LeftForeArm  28.1183 -13.6634 -6.37876
LeftHand  -0.244104 0.0205437 5.32207
RightShoulder  6.72449 10.2862 42.4638
RightArm  6.82084 0.290232 30.1627
RightForeArm  -0.0794559 36.963 8.44638
RightHand  -0.571427 -0.78993 -14.3873
LeftUpLeg  -21.224 9.30921 4.55677
LeftLeg  40.9418 2.89012 3.03812
LeftFoot  -0.225426 0.457363 -4.68126
LeftToes  -7.64008e-011 1.13257e-010 -2.15718e-012
102
root  -33.3002 40.2138 -4.06985 111.871 -85.6471 -121.124
RightUpLeg  6.93324 -11.3456 0.616831
RightLeg  17.9992 -1.00199 3.54999
RightFoot  -11.9566 -0.102844 -3.96034
RightToes  8.73114e-010 0 -3.6325e-017
Spine  2.50587 0.761024 15.8958
Spine1  13.8663 3.02051 -5.41825
HEad  -5.65967 1.0093 -5.79835
LeftShoulder1  9.45807 -12.8549 -50.4681
LeftArm  -1.44709 27.3705 -30.9585
LeftForeArm  28.3275 -13.4947 -6.28264
LeftHand  -0.244104 0.0205437 5.32207
RightShoulder  6.68254 10.3155 42.0854
RightArm  6.79924 3.0424 30.5665
RightForeArm  0.529482 38.9803 9.03553
RightHand  -0.572867 -0.780939 -14.395
LeftUpLeg  -20.9148 11.2857 4.08774
LeftLeg  28.5585 2.91953 2.18857
LeftFoot  0.464922 0.539906 -5.25277
LeftToes  -7.64008e-011 1.13257e-010 -2.15718e-012
103
root  -34.7375 40.133 -4.08935 119.642 -84.7758 -129.011
RightUpLeg  9.92823 -10.8896 0.514407
RightLeg  17.0626 -0.315322 3.72016
RightFoot  -13.2814 -0.159707 -4.09697
RightToes  8.73114e-010 0 -3.6325e-017
Spine  2.02978 1.00849 16.5169
Spine1  14.2979 3.39476 -6.33376
HEad  -6.28817 1.52219 -5.93322
LeftShoulder1  9.38723 -12.7983 -50.2659
LeftArm  -2.39193 28.5124 -31.6005
LeftForeArm  28.0541 -13.4742 -6.15022
LeftHand  -0.244104 0.0205437 5.32207
RightShoulder  6.67142 10.3851 41.7842
RightArm  6.89891 5.37007 31.0153
RightForeArm  0.618501 40.1857 9.42303
RightHand  -0.614009 -0.572631 -14.7752
LeftUpLeg  -19.4544 11.9912 4.15913
LeftLeg  15.5676 2.78413 0.608577
LeftFoot  0.678124 0.521957 -4.99541
LeftToes  -7.64008e-011 1.13257e-010 -2.15718e-012
104
root  -36.1963 39.9638 -4.08249 126.129 -83.6293 -135.552
RightUpLeg  12.7399 -10.8384 0.355232
RightLeg  16.4913 1.00388 3.73391
RightFoot  -15.0766 -0.224878 -3.82966
RightToes  8.73114e-010 0 -3.6325e-017
Spine  1.46696 1.33325 17.2679
Spine1  14.7568 3.91361 -7.36068
HEad  -6.77899 1.86431 -5.87944
LeftShoulder1  9.33345 -12.7225 -50.2114
LeftArm  -3.08659 29.2473 -31.8045
LeftForeArm  28.0124 -13.4256 -6.05085
LeftHand  -0.244104 0.0205437 5.32207
RightShoulder  6.72911 10.4662 41.9094
RightArm  7.13567 7.12143 31.1055
RightForeArm  0.71754 40.5552 9.54071
RightHand  -0.698426 -0.095247 -15.3257
LeftUpLeg  -17.3006 8.31083 6.36769
LeftLeg  3.89862 6.47677 -2.12298
LeftFoot  0.791963 0.546576 -5.19264
LeftToes  -7.64008e-011 1.13257e-010 -2.15718e-012
105
root  -37.7357 39.6505 -4.04697 129.861 -82.5003 -139.169
RightUpLeg  15.0077 -11.5679 -0.175962
RightLeg  17.176 2.98482 3.66716
RightFoot  -17.3956 -0.256253 -2.62914
RightToes  8.73114e-010 0 -3.6325e-017
Spine  0.705924 1.71276 17.9127
Spine1  15.0045 4.39274 -8.07032
HEad  -7.09737 2.03919 -5.56982
LeftShoulder1  9.25151 -12.5905 -50.178
LeftArm  -3.80033 29.4348 -31.6793
LeftForeArm  28.5418 -13.0275 -6.0403
LeftHand  -0.244104 0.0205437 5.32207
RightShoulder  6.8053 10.4889 42.3442
RightArm  7.37269 8.09063 31.005
RightForeArm  0.981469 39.9161 9.31289
RightHand  -0.790066 0.47804 -15.6805
LeftUpLeg  -16.1778 5.73853 7.94824
LeftLeg  -2.69852 9.70998 -4.14828
LeftFoot  0.0421038 0.590577 -5.91112
LeftToes  -7.64008e-011 1.13257e-010 -2.15718e-012
106
root  -39.3347 39.3317 -3.98376 131.733 -81.9049 -140.795
RightUpLeg  16.8561 -12.3672 -0.982223
RightLeg  18.5313 4.65346 3.25808
RightFoot  -18.9863 -0.212841 -1.24824
RightToes  8.73114e-010 0 -3.6325e-017
Spine  -0.186103 1.9962 17.9691
Spine1  15.1379 4.66722 -8.38775
HEad  -7.28776 2.16818 -5.07127
LeftShoulder1  9.12464 -12.4209 -50.0172
LeftArm  -4.70087 29.333 -31.4705
LeftForeArm  28.8465 -12.4722 -6.0289
LeftHand  -0.244104 0.0205437 5.32207
RightShoulder  6.83989 10.4482 42.706
RightArm  7.50389 7.96435 31.0908
RightForeArm  1.03436 38.3127 8.79595
RightHand  -0.808346 0.657154 -15.5729
LeftUpLeg  -16.1295 6.00401 7.54118
LeftLeg  -3.25394 10.8309 -4.53657
LeftFoot  -0.178103 0.519594 -5.30002
LeftToes  -7.64008e-011 1.13257e-010 -2.15718e-012
107
root  -41.0039 39.0872 -3.89736 135.454 -81.8294 -144.349
RightUpLeg  18.562 -11.9235 -1.88976
RightLeg  20.0366 5.18306 2.44669
RightFoot  -19.7579 -0.0946834 0.490801
RightToes  8.73114e-010 0 -3.6325e-017
Spine  -1.2378 2.30037 17.048
Spine1  15.3786 4.85414 -8.25666
HEad  -7.22779 2.24066 -4.62867
LeftShoulder1  9.02872 -12.2742 -49.9515
LeftArm  -5.66756 29.3605 -31.0989
LeftForeArm  28.2517 -12.3325 -5.86363
LeftHand  -0.244104 0.0205437 5.32207
RightShoulder  6.86535 10.417 42.9771
RightArm  7.66586 6.61142 31.2481
RightForeArm  0.66004 35.8543 8.07798
RightHand  -0.751602 0.38419 -15.1614
LeftUpLeg  -16.2906 5.618 6.34687
LeftLeg  -0.481002 11.995 -4.0225
LeftFoot  3.27097 0.267672 -2.37642
LeftToes  -7.64008e-011 1.13257e-010 -2.15718e-012
108
root  -42.7155 38.9124 -3.81301 143.964 -82.2197 -152.754
RightUpLeg  19.7712 -9.88996 -3.21182
RightLeg  22.2144 4.62972 1.82546
RightFoot  -19.8064 0.179712 4.23171
RightToes  8.73114e-010 0 -3.6325e-017
Spine  -2.59396 2.7671 14.6844
Spine1  15.7793 4.97275 -7.46001
HEad  -6.85015 2.09641 -4.25363
LeftShoulder1  9.0171 -12.1821 -50.1775
LeftArm  -6.48033 29.2828 -30.3098
LeftForeArm  27.2064 -12.5365 -5.61717
LeftHand  -0.244104 0.0205437 5.32207
RightShoulder  6.94565 10.4022 43.5581
RightArm  8.2074 4.37279 31.1513
RightForeArm  -0.26424 32.2319 7.11851
RightHand  -0.77159 0.522336 -15.1967
LeftUpLeg  -16.8289 5.69517 4.32302
LeftLeg  3.58718 10.8252 -3.0807
LeftFoot  9.8491 -0.322743 1.39302
LeftToes  -7.64008e-011 1.13257e-010 -2.15718e-012
109
root  -44.3423 38.8563 -3.74476 157.533 -83.2132 -166.071
RightUpLeg  19.1033 -7.51567 -5.20172
RightLeg  26.9414 3.54062 1.72105
RightFoot  -17.0685 0.35204 9.78393
RightToes  8.73114e-010 0 -3.6325e-017
Spine  -3.91848 3.049 11.0388
Spine1  15.9687 4.83692 -6.27072
HEad  -6.53459 1.70069 -3.70946
LeftShoulder1  9.01448 -12.1255 -50.3421
LeftArm  -7.15324 28.3049 -29.2578
LeftForeArm  26.3788 -12.4008 -5.48071
LeftHand  -0.244104 0.0205437 5.32207
RightShoulder  7.05358 10.3323 44.5052
RightArm  9.57973 1.89865 31.1224
RightForeArm  -2.61852 26.8659 5.90966
RightHand  -0.977757 1.68864 -16.1154
LeftUpLeg  -17.6839 7.25575 1.23371
LeftLeg  7.666 7.09239 -2.34714
LeftFoot  14.5662 -1.03628 4.15817
LeftToes  -7.64008e-011 1.13257e-010 -2.15718e-012
